<svg width="320" height="200" viewBox="0 0 320 200" fill="none" xmlns="http://www.w3.org/2000/svg">
<rect x="0.5" y="0.5" width="319" height="199" fill="white" stroke="white"/>
<path d="M159.567 37.8313C158.467 37.8883 157.389 38.1693 156.397 38.6575L113.129 59.9463C112.009 60.497 111.025 61.2983 110.25 62.2908C109.475 63.2832 108.929 64.4412 108.652 65.6788L97.9774 113.499C97.7309 114.6 97.7033 115.742 97.8963 116.854C98.0892 117.967 98.4988 119.029 99.1007 119.978C99.2467 120.209 99.4037 120.434 99.5711 120.65L129.519 158.994C130.295 159.986 131.279 160.787 132.399 161.337C133.518 161.888 134.745 162.174 135.988 162.173L184.015 162.162C185.258 162.163 186.484 161.878 187.604 161.329C188.724 160.779 189.708 159.979 190.484 158.988L220.421 120.639C221.197 119.646 221.743 118.488 222.02 117.249C222.297 116.011 222.297 114.725 222.02 113.487L211.329 65.6674C211.053 64.4298 210.507 63.2718 209.732 62.2794C208.956 61.287 207.973 60.4856 206.853 59.9349L163.579 38.6575C162.331 38.0433 160.951 37.7592 159.567 37.8313V37.8313Z" fill="#326CE5"/>
<path d="M159.997 54.1016C158.567 54.1017 157.407 55.4283 157.407 57.0647C157.407 57.0898 157.412 57.1138 157.413 57.1387C157.41 57.3611 157.4 57.629 157.407 57.8225C157.441 58.7664 157.641 59.4887 157.761 60.3583C157.979 62.2194 158.162 63.7622 158.049 65.1961C157.939 65.7368 157.553 66.2314 157.208 66.5751L157.147 67.7034C155.593 67.8359 154.028 68.0788 152.465 68.4441C145.741 70.0163 139.951 73.5832 135.543 78.399C135.257 78.1981 134.757 77.8284 134.608 77.7152C134.146 77.7795 133.679 77.9264 133.07 77.5614C131.911 76.758 130.855 75.6491 129.578 74.3134C128.993 73.6744 128.569 73.0659 127.874 72.45C127.716 72.3101 127.475 72.121 127.298 71.9771C126.755 71.5308 126.114 71.298 125.494 71.2762C124.698 71.2481 123.932 71.5686 123.43 72.2164C122.539 73.368 122.824 75.1281 124.067 76.1482C124.079 76.1585 124.093 76.1666 124.105 76.1767C124.276 76.3192 124.485 76.5018 124.642 76.6212C125.38 77.1822 126.054 77.4693 126.789 77.9147C128.338 78.8997 129.622 79.7164 130.641 80.7011C131.038 81.1377 131.108 81.907 131.161 82.2397L131.991 83.0032C127.547 89.8892 125.491 98.3949 126.706 107.061L125.622 107.386C125.336 107.766 124.932 108.364 124.509 108.543C123.177 108.975 121.677 109.134 119.867 109.329C119.017 109.402 118.283 109.359 117.382 109.534C117.184 109.573 116.907 109.647 116.69 109.7C116.683 109.701 116.676 109.704 116.668 109.705C116.656 109.708 116.641 109.714 116.629 109.717C115.103 110.097 114.122 111.541 114.438 112.965C114.754 114.389 116.245 115.254 117.78 114.914C117.791 114.911 117.808 114.911 117.819 114.908C117.836 114.904 117.852 114.895 117.869 114.891C118.083 114.842 118.351 114.789 118.538 114.737C119.424 114.493 120.066 114.134 120.863 113.82C122.576 113.187 123.995 112.658 125.378 112.452C125.956 112.405 126.564 112.819 126.867 112.993L127.996 112.794C130.593 121.087 136.037 127.791 142.931 131.997L142.461 133.159C142.63 133.611 142.817 134.222 142.691 134.667C142.188 136.01 141.327 137.426 140.347 139.006C139.872 139.736 139.386 140.302 138.958 141.137C138.855 141.337 138.725 141.644 138.626 141.855C137.96 143.322 138.448 145.011 139.727 145.644C141.014 146.282 142.611 145.61 143.302 144.14C143.303 144.138 143.306 144.136 143.307 144.134C143.308 144.133 143.307 144.13 143.307 144.129C143.406 143.92 143.545 143.646 143.628 143.451C143.995 142.585 144.117 141.843 144.375 141.006C145.06 139.234 145.437 137.374 146.38 136.215C146.639 135.898 147.06 135.776 147.496 135.655L148.083 134.561C154.093 136.937 160.819 137.574 167.539 136.003C169.072 135.645 170.552 135.181 171.983 134.624C172.148 134.925 172.454 135.504 172.536 135.65C172.98 135.798 173.464 135.875 173.859 136.476C174.564 137.717 175.047 139.186 175.635 140.96C175.893 141.798 176.021 142.539 176.388 143.405C176.471 143.602 176.61 143.88 176.709 144.089C177.398 145.563 179 146.238 180.289 145.599C181.567 144.965 182.056 143.276 181.39 141.809C181.291 141.598 181.155 141.291 181.052 141.091C180.624 140.256 180.138 139.696 179.664 138.966C178.683 137.387 177.87 136.074 177.367 134.732C177.157 134.04 177.403 133.609 177.566 133.159C177.468 133.044 177.258 132.39 177.135 132.083C184.299 127.727 189.583 120.773 192.065 112.743C192.4 112.797 192.982 112.903 193.171 112.942C193.561 112.677 193.919 112.332 194.621 112.389C196.004 112.595 197.423 113.124 199.137 113.757C199.933 114.071 200.575 114.436 201.461 114.68C201.648 114.732 201.916 114.78 202.13 114.828C202.148 114.832 202.163 114.841 202.18 114.845C202.192 114.848 202.208 114.848 202.219 114.851C203.755 115.191 205.246 114.326 205.561 112.902C205.877 111.479 204.896 110.033 203.37 109.654C203.148 109.602 202.833 109.514 202.617 109.472C201.716 109.296 200.983 109.339 200.133 109.267C198.322 109.071 196.822 108.912 195.49 108.48C194.947 108.263 194.56 107.597 194.372 107.323L193.326 107.01C193.868 102.97 193.722 98.766 192.784 94.5593C191.837 90.3135 190.163 86.4303 187.931 83.0089C188.199 82.7578 188.706 82.2958 188.849 82.1599C188.891 81.6814 188.855 81.1797 189.336 80.6498C190.355 79.6651 191.639 78.8485 193.188 77.8634C193.923 77.418 194.603 77.1309 195.34 76.5699C195.507 76.443 195.735 76.2421 195.91 76.0969C197.153 75.0765 197.439 73.3164 196.547 72.1651C195.655 71.0138 193.927 70.9053 192.684 71.9258C192.507 72.07 192.268 72.2581 192.109 72.3987C191.414 73.0147 190.984 73.6231 190.399 74.2621C189.122 75.5979 188.066 76.7124 186.907 77.5158C186.405 77.8169 185.669 77.7127 185.336 77.6924L184.351 78.4161C178.734 72.3512 171.087 68.4737 162.852 67.7204C162.829 67.3651 162.799 66.7228 162.791 66.5295C162.454 66.1973 162.047 65.9138 161.945 65.1961C161.832 63.7622 162.02 62.2194 162.238 60.3583C162.358 59.4887 162.558 58.7664 162.592 57.8225C162.6 57.608 162.587 57.2967 162.587 57.0647C162.586 55.4283 161.427 54.1014 159.997 54.1016H159.997ZM156.754 74.7863L155.985 88.7756L155.93 88.8041C155.878 90.0556 154.878 91.0549 153.65 91.0549C153.147 91.0549 152.682 90.8885 152.305 90.6047L152.283 90.6161L141.144 82.4847C144.567 79.0181 148.946 76.4563 153.993 75.2764C154.915 75.0608 155.836 74.9009 156.754 74.7863ZM163.245 74.7863C169.137 75.5325 174.586 78.2798 178.762 82.4904L167.694 90.5705L167.655 90.5535C166.673 91.2923 165.289 91.1089 164.523 90.1204C164.21 89.7154 164.045 89.2392 164.025 88.7585L164.014 88.7528L163.245 74.7863ZM137.104 87.71L147.275 97.078L147.264 97.135C148.182 97.9568 148.317 99.3829 147.552 100.372C147.238 100.777 146.818 101.048 146.367 101.175L146.356 101.221L133.319 105.095C132.655 98.8474 134.085 92.7737 137.104 87.71ZM182.818 87.7157C184.329 90.238 185.473 93.0551 186.155 96.1093C186.828 99.1268 186.997 102.139 186.719 105.05L173.615 101.164L173.604 101.107C172.431 100.776 171.71 99.5473 171.983 98.3145C172.095 97.8095 172.355 97.3822 172.708 97.0666L172.702 97.0381L182.818 87.7157H182.818ZM157.911 97.8016H162.078L164.667 101.135L163.738 105.295L159.997 107.147L156.245 105.289L155.315 101.129L157.911 97.8016ZM171.269 109.21C171.446 109.2 171.622 109.217 171.795 109.249L171.817 109.221L185.302 111.569C183.329 117.278 179.552 122.225 174.506 125.535L169.271 112.515L169.288 112.492C168.807 111.341 169.288 109.992 170.395 109.443C170.678 109.303 170.974 109.225 171.269 109.21H171.269ZM148.62 109.267C149.649 109.281 150.572 110.017 150.811 111.096C150.923 111.601 150.868 112.101 150.684 112.543L150.722 112.594L145.543 125.484C140.7 122.284 136.843 117.493 134.78 111.614L148.149 109.278L148.171 109.306C148.321 109.278 148.473 109.264 148.62 109.267V109.267ZM159.914 114.914C160.272 114.9 160.636 114.976 160.982 115.147C161.435 115.372 161.785 115.726 162.006 116.15H162.055L168.646 128.413C167.791 128.708 166.911 128.96 166.012 129.171C160.972 130.349 155.947 129.992 151.397 128.396L157.972 116.156H157.983C158.377 115.396 159.125 114.943 159.914 114.914Z" fill="white" stroke="white" stroke-width="0.25"/>
</svg>
