<svg width="320" height="200" viewBox="0 0 320 200" fill="none" xmlns="http://www.w3.org/2000/svg">
<rect x="0.5" y="0.5" width="319" height="199" fill="white" stroke="white"/>
<path d="M155.808 36.0344C155.533 36.0595 154.657 36.147 153.869 36.2096C135.689 37.8485 118.66 47.6566 107.874 62.7316C101.868 71.1136 98.027 80.6214 96.5756 90.6923C96.0626 94.2077 96 95.2461 96 100.013C96 104.779 96.0626 105.817 96.5756 109.333C100.054 133.365 117.158 153.557 140.356 161.038C144.51 162.377 148.889 163.29 153.869 163.84C155.808 164.053 164.192 164.053 166.131 163.84C174.727 162.89 182.009 160.763 189.191 157.097C190.292 156.534 190.505 156.384 190.355 156.259C190.255 156.184 185.562 149.891 179.932 142.285L169.697 128.461L156.872 109.483C149.815 99.0492 144.009 90.5172 143.959 90.5172C143.909 90.5046 143.859 98.9366 143.834 109.233C143.797 127.26 143.784 127.986 143.559 128.411C143.234 129.024 142.983 129.274 142.458 129.55C142.057 129.75 141.707 129.787 139.818 129.787H137.653L137.078 129.424C136.702 129.187 136.427 128.874 136.239 128.511L135.977 127.948L136.002 102.865L136.039 77.7691L136.427 77.2812C136.627 77.0185 137.053 76.6807 137.353 76.518C137.866 76.2678 138.066 76.2428 140.231 76.2428C142.783 76.2428 143.209 76.3429 143.872 77.0685C144.059 77.2687 151.004 87.7273 159.312 100.325C167.62 112.923 178.981 130.125 184.561 138.57L194.696 153.92L195.209 153.582C199.751 150.63 204.556 146.426 208.36 142.047C216.455 132.752 221.673 121.418 223.424 109.333C223.937 105.817 224 104.779 224 100.013C224 95.2461 223.937 94.2077 223.424 90.6923C219.946 66.6599 202.842 46.4681 179.644 38.9869C175.553 37.6608 171.198 36.7475 166.319 36.1971C165.117 36.072 156.847 35.9344 155.808 36.0344ZM182.009 74.7416C182.61 75.0418 183.098 75.6173 183.273 76.2178C183.373 76.5431 183.398 83.4988 183.373 99.1743L183.335 121.668L179.369 115.588L175.39 109.508V93.1568C175.39 82.5856 175.44 76.6431 175.515 76.3554C175.715 75.6548 176.153 75.1044 176.754 74.7791C177.267 74.5164 177.455 74.4914 179.419 74.4914C181.271 74.4914 181.596 74.5164 182.009 74.7416Z" fill="black"/>
</svg>
