<svg width="320" height="200" viewBox="0 0 320 200" fill="none" xmlns="http://www.w3.org/2000/svg">
  <rect x="0.5" y="0.5" width="319" height="199" fill="white" stroke="white" />
  <path
    d="M159.539 36C127.044 36 129.073 50.1653 129.073 50.1653L129.11 64.8404H160.118V69.2465H116.793C116.793 69.2465 96 66.876 96 99.8348C96 132.793 114.149 131.625 114.149 131.625H124.98V116.331C124.98 116.331 124.396 98.0869 142.839 98.0869C161.282 98.0869 173.594 98.0869 173.594 98.0869C173.594 98.0869 190.873 98.3677 190.873 81.2997C190.873 64.2318 190.873 53.0784 190.873 53.0784C190.873 53.0784 193.497 36 159.539 36ZM142.44 45.8684C145.526 45.8684 148.019 48.3749 148.019 51.4762C148.019 54.5775 145.526 57.084 142.44 57.084C139.355 57.084 136.862 54.5775 136.862 51.4762C136.862 48.3749 139.355 45.8684 142.44 45.8684Z"
    fill="url(#paint0_linear_186_22)" />
  <path
    d="M160.46 163.997C192.954 163.997 190.925 149.832 190.925 149.832L190.889 135.157H159.88V130.751H203.205C203.205 130.751 223.998 133.121 223.998 100.162C223.998 67.2035 205.85 68.3723 205.85 68.3723H195.018V83.6664C195.018 83.6664 195.602 101.91 177.159 101.91C158.717 101.91 146.404 101.91 146.404 101.91C146.404 101.91 129.125 101.629 129.125 118.697C129.125 135.765 129.125 146.919 129.125 146.919C129.125 146.919 126.502 163.997 160.46 163.997ZM177.558 154.129C174.473 154.129 171.979 151.622 171.979 148.521C171.979 145.42 174.473 142.913 177.558 142.913C180.643 142.913 183.137 145.42 183.137 148.521C183.137 151.622 180.643 154.129 177.558 154.129Z"
    fill="url(#paint1_linear_186_22)" />
  <defs>
    <linearGradient id="paint0_linear_186_22" x1="108.301" y1="47.1883" x2="171.925" y2="110.693"
      gradientUnits="userSpaceOnUse">
      <stop stop-color="#387EB8" />
      <stop offset="1" stop-color="#366994" />
    </linearGradient>
    <linearGradient id="paint1_linear_186_22" x1="147.234" y1="87.7952" x2="215.55" y2="152.904"
      gradientUnits="userSpaceOnUse">
      <stop stop-color="#FFE052" />
      <stop offset="1" stop-color="#FFC331" />
    </linearGradient>
  </defs>
</svg>