<?xml version="1.0" encoding="UTF-8"?>
<svg xmlns="http://www.w3.org/2000/svg" xmlns:xlink="http://www.w3.org/1999/xlink" width="48pt" height="48pt"
    viewBox="0 0 48 48" version="1.1">
    <g id="surface1">
        <path style=" stroke:none;fill-rule:nonzero;fill:rgb(0%,0%,0%);fill-opacity:1;"
            d="M 33.808594 35.371094 C 33.476562 35.035156 33.097656 34.742188 32.648438 34.53125 C 30.53125 33.515625 28.023438 34.429688 27.023438 36.515625 C 26.019531 38.621094 26.90625 41.140625 29.011719 42.144531 C 31.109375 43.140625 33.632812 42.257812 34.636719 40.15625 L 38.023438 33.066406 L 39.542969 37.367188 L 42.195312 36.429688 L 38.410156 25.726562 Z M 33.808594 35.371094 " />
        <path style=" stroke:none;fill-rule:nonzero;fill:rgb(0%,0%,0%);fill-opacity:1;"
            d="M 26.011719 14.910156 C 25.253906 14.324219 24.371094 13.917969 23.394531 13.777344 C 20.320312 13.335938 17.46875 15.449219 17.019531 18.53125 C 16.523438 21.945312 19.179688 24.96875 22.589844 24.96875 C 25.335938 24.96875 27.746094 22.945312 28.152344 20.152344 C 28.152344 20.144531 28.152344 20.140625 28.152344 20.132812 L 28.15625 20.132812 L 30.210938 4.609375 L 44.734375 3.15625 L 43.414062 13.167969 C 42.671875 12.589844 41.789062 12.171875 40.796875 12.027344 C 37.738281 11.585938 34.867188 13.6875 34.421875 16.785156 C 33.921875 20.195312 36.582031 23.21875 39.988281 23.21875 C 42.738281 23.21875 45.144531 21.199219 45.550781 18.402344 C 45.554688 18.394531 45.550781 18.390625 45.550781 18.382812 L 45.554688 18.382812 L 47.992188 0 L 27.714844 2.035156 Z M 26.011719 14.910156 " />
        <path style=" stroke:none;fill-rule:nonzero;fill:rgb(0%,0%,0%);fill-opacity:1;"
            d="M 4.164062 48 C 6.804688 48 8.789062 45.597656 8.316406 43.019531 L 6.484375 32.941406 L 14.496094 29.34375 L 15.488281 34.835938 C 15.019531 34.761719 14.539062 34.75 14.058594 34.835938 C 11.769531 35.257812 10.246094 37.449219 10.667969 39.746094 C 11.050781 41.820312 12.855469 43.203125 14.808594 43.203125 C 17.457031 43.203125 19.441406 40.816406 18.96875 38.226562 L 16.613281 25.292969 L 3.324219 31.289062 L 4.835938 39.632812 C 4.371094 39.558594 3.894531 39.542969 3.40625 39.632812 C 1.117188 40.050781 -0.34375 42.253906 0.078125 44.542969 C 0.449219 46.574219 2.167969 48 4.164062 48 Z M 4.164062 48 " />
        <path style=" stroke:none;fill-rule:nonzero;fill:rgb(0%,0%,0%);fill-opacity:1;"
            d="M 4.230469 21.949219 C 6.167969 23.234375 8.785156 22.710938 10.074219 20.761719 C 10.699219 19.824219 10.917969 18.695312 10.695312 17.59375 L 9.128906 9.894531 L 12.933594 12.414062 L 14.488281 10.066406 L 5.023438 3.800781 L 7.148438 14.273438 C 5.398438 14.023438 3.886719 14.824219 3.042969 16.101562 C 1.75 18.050781 2.292969 20.667969 4.230469 21.949219 Z M 4.230469 21.949219 " />
    </g>
</svg>